<svg width="25" height="24" viewBox="0 0 25 24" fill="none" xmlns="http://www.w3.org/2000/svg">
<g id="icon-dropdown 1">
<path id="Vector" fill-rule="evenodd" clip-rule="evenodd" d="M17.066 9.43403C17.1404 9.50833 17.1994 9.59656 17.2396 9.69368C17.2799 9.7908 17.3006 9.8949 17.3006 10C17.3006 10.1052 17.2799 10.2093 17.2396 10.3064C17.1994 10.4035 17.1404 10.4917 17.066 10.566L13.066 14.566C12.9917 14.6404 12.9035 14.6994 12.8064 14.7397C12.7092 14.7799 12.6051 14.8007 12.5 14.8007C12.3949 14.8007 12.2908 14.7799 12.1936 14.7397C12.0965 14.6994 12.0083 14.6404 11.934 14.566L7.934 10.566C7.85967 10.4917 7.80071 10.4035 7.76048 10.3063C7.72026 10.2092 7.69955 10.1051 7.69955 10C7.69955 9.89491 7.72026 9.79083 7.76048 9.69371C7.80071 9.5966 7.85967 9.50836 7.934 9.43403C8.00833 9.3597 8.09657 9.30074 8.19368 9.26052C8.2908 9.22029 8.39488 9.19958 8.5 9.19958C8.60512 9.19958 8.7092 9.22029 8.80632 9.26052C8.90343 9.30074 8.99167 9.3597 9.066 9.43403L12.5 12.87L15.934 9.43503C16.0083 9.36065 16.0965 9.30164 16.1936 9.26138C16.2908 9.22112 16.3949 9.2004 16.5 9.2004C16.6051 9.2004 16.7092 9.22112 16.8064 9.26138C16.9035 9.30164 16.9917 9.36065 17.066 9.43503V9.43403Z" fill="#414E5A"/>
</g>
</svg>
